<?xml version="1.0" encoding="utf-8"?>
<!-- Generator: Adobe Illustrator 25.4.1, SVG Export Plug-In . SVG Version: 6.00 Build 0)  -->
<svg version="1.1" id="Layer_1" xmlns="http://www.w3.org/2000/svg" xmlns:xlink="http://www.w3.org/1999/xlink" x="0px" y="0px"
	 viewBox="0 0 579.06 208.34" style="enable-background:new 0 0 579.06 208.34;" xml:space="preserve">
<style type="text/css">
	.st0{enable-background:new    ;}
	.st1{fill:#6ABB60;}
	.st2{fill:url(#SVGID_1_);}
	.st3{fill:#FFFFFF;}
</style>
<g>
	<g id="LAYF" transform="translate(1263.559 -137)">
		<g class="st0">
			<path class="st1" d="M-995.9,269.5h45.24v17.12h-66.55V183.2h21.31V269.5z"/>
			<path class="st1" d="M-878.71,265.31h-37.36l-7.1,21.31h-22.66l38.5-103.41h19.75l38.71,103.41h-22.66L-878.71,265.31z
				 M-910.32,248.05h25.85l-13-38.71L-910.32,248.05z"/>
			<path class="st1" d="M-814.22,229.8l21.52-46.59h23.3l-33.95,65.91v37.5h-21.66v-37.5l-33.95-65.91h23.37L-814.22,229.8z"/>
			<path class="st1" d="M-697.74,244.36h-40.91v42.26h-21.31V183.2h67.33v17.26h-46.02v26.71h40.91V244.36z"/>
		</g>
	</g>
	<g>
		
			<radialGradient id="SVGID_1_" cx="110.609" cy="97.1575" r="95.3895" gradientTransform="matrix(0.9785 0.2063 -0.2063 0.9785 33.1875 -17.0655)" gradientUnits="userSpaceOnUse">
			<stop  offset="0" style="stop-color:#94C940"/>
			<stop  offset="1" style="stop-color:#50AF48"/>
		</radialGradient>
		<path class="st2" d="M178.32,22.96c-0.24-0.16-0.47-0.31-0.68-0.47C135.65-7.08,77.65,2.83,47.86,44.66
			C18.16,86.48-6.93,215.1,70.06,173.89c4.96-2.69,10.07-5.09,15.31-7.2c20.1-7.95,43.87-9.32,64.75-4.21
			c2.17,0.53,4.34,1.09,6.5,1.65c3.89,1.07,7.83,1.94,11.81,2.61c7.33,1.11,14.52,0.32,20.73-3.99c4.11-3.03,7.67-6.75,10.52-10.99
			C229.35,110.3,219.78,52.63,178.32,22.96z"/>
		<g>
			<path class="st3" d="M94.31,43.76c-2.98,0.56-5.86,1.48-8.54,2.76c-0.25,0.12-0.36,0.42-0.24,0.67c0.09,0.18,0.26,0.29,0.45,0.29
				c0.07,0,0.14-0.02,0.21-0.05c2.6-1.23,5.4-2.14,8.29-2.68c0.27-0.05,0.45-0.31,0.4-0.58C94.84,43.88,94.58,43.71,94.31,43.76z"/>
			<path class="st3" d="M79.72,50.84c-0.17-0.21-0.49-0.25-0.7-0.07c-2.31,1.88-4.39,4.07-6.16,6.53c-0.16,0.22-0.11,0.54,0.11,0.7
				c0.09,0.06,0.19,0.09,0.29,0.09c0.16,0,0.31-0.07,0.41-0.21c1.72-2.38,3.73-4.52,5.98-6.34C79.86,51.37,79.89,51.05,79.72,50.84z
				"/>
			<path class="st3" d="M111.11,44.67c-2.94-0.81-5.99-1.32-8.84-1.47c-0.28-0.02-0.51,0.2-0.53,0.47c-0.01,0.28,0.2,0.51,0.47,0.53
				c2.78,0.15,5.76,0.64,8.63,1.44c0.04,0.01,0.09,0.02,0.13,0.02c0.22,0,0.42-0.15,0.48-0.37
				C111.54,45.02,111.38,44.75,111.11,44.67z"/>
			<path class="st3" d="M71.38,99.35l-0.1-0.19c-0.41-0.76-0.8-1.55-1.15-2.35c-0.11-0.25-0.41-0.37-0.66-0.25
				c-0.25,0.11-0.36,0.41-0.25,0.66c0.37,0.82,0.77,1.63,1.19,2.42l0.11,0.2c0.99,1.74,2.04,3.48,3.13,5.15
				c0.1,0.15,0.26,0.23,0.42,0.23c0.09,0,0.19-0.03,0.27-0.08c0.23-0.15,0.3-0.46,0.15-0.69C73.39,102.79,72.35,101.07,71.38,99.35z
				"/>
			<path class="st3" d="M66.66,80.75c0-0.27-0.23-0.5-0.5-0.5c0,0,0,0,0,0c-0.28,0-0.5,0.23-0.5,0.5c0.03,3,0.37,6,1.03,8.9
				c0.05,0.23,0.26,0.39,0.49,0.39c0.04,0,0.07,0,0.11-0.01c0.27-0.06,0.44-0.33,0.38-0.6C67.03,86.6,66.69,83.68,66.66,80.75z"/>
			<path class="st3" d="M66.74,73.4c0.03,0.01,0.06,0.01,0.09,0.01c0.24,0,0.45-0.17,0.49-0.41c0.53-2.91,1.38-5.73,2.52-8.37
				c0.11-0.25-0.01-0.55-0.26-0.66c-0.25-0.11-0.55,0.01-0.66,0.26c-1.17,2.71-2.04,5.6-2.58,8.58
				C66.29,73.09,66.47,73.35,66.74,73.4z"/>
			<path class="st3" d="M125.86,47.51c-1.28,0.65-2.5,1.37-3.64,2.15c-1.13-0.76-2.36-1.48-3.64-2.12
				c-0.25-0.12-0.55-0.02-0.67,0.22c-0.12,0.25-0.03,0.55,0.22,0.67c1.36,0.68,2.64,1.44,3.81,2.25l0.57,0
				c1.18-0.83,2.45-1.6,3.79-2.27c0.25-0.12,0.35-0.43,0.22-0.67C126.41,47.48,126.11,47.38,125.86,47.51z"/>
			<path class="st3" d="M177.48,83.24c-0.28,0-0.51,0.21-0.52,0.48c-0.11,2.97-0.56,5.9-1.34,8.71c-0.07,0.27,0.08,0.54,0.35,0.62
				c0.04,0.01,0.09,0.02,0.13,0.02c0.22,0,0.42-0.15,0.48-0.37c0.8-2.89,1.26-5.9,1.37-8.94C177.97,83.48,177.75,83.25,177.48,83.24
				z"/>
			<path class="st3" d="M173.4,99.5c-0.24-0.13-0.55-0.04-0.68,0.21c-0.19,0.35-0.38,0.7-0.56,1.02l-1.62,2.56
				c-0.84,1.3-1.74,2.6-2.65,3.87c-0.16,0.22-0.11,0.54,0.11,0.7c0.09,0.06,0.19,0.09,0.29,0.09c0.16,0,0.31-0.07,0.41-0.21
				c0.92-1.28,1.82-2.6,2.68-3.91l1.63-2.58c0.2-0.35,0.4-0.71,0.59-1.07C173.74,99.93,173.65,99.63,173.4,99.5z"/>
			<path class="st3" d="M176.96,76.31c0.03,0,0.05,0,0.08-0.01c0.27-0.04,0.46-0.3,0.41-0.57c-0.49-2.98-1.32-5.91-2.46-8.71
				c-0.1-0.26-0.39-0.38-0.65-0.27c-0.26,0.1-0.38,0.4-0.27,0.65c1.11,2.73,1.92,5.58,2.4,8.49
				C176.5,76.14,176.71,76.31,176.96,76.31z"/>
			<path class="st3" d="M170.81,60.69c0.1,0,0.19-0.03,0.28-0.08c0.23-0.15,0.29-0.46,0.14-0.69c-1.7-2.54-3.69-4.85-5.9-6.86
				c-0.2-0.18-0.52-0.17-0.71,0.03c-0.19,0.2-0.17,0.52,0.03,0.71c2.16,1.96,4.09,4.2,5.74,6.68
				C170.49,60.62,170.65,60.69,170.81,60.69z"/>
			<path class="st3" d="M142.43,43.75c-2.92-0.09-5.97,0.24-9.01,0.98c-0.27,0.07-0.43,0.34-0.37,0.6c0.06,0.23,0.26,0.38,0.49,0.38
				c0.04,0,0.08,0,0.12-0.01c2.95-0.72,5.91-1.04,8.74-0.96c0.28-0.01,0.51-0.21,0.52-0.48C142.93,43.99,142.71,43.76,142.43,43.75z
				"/>
			<path class="st3" d="M158.54,49.29c0.18,0,0.34-0.09,0.44-0.26c0.14-0.24,0.05-0.55-0.19-0.68c-2.62-1.47-5.45-2.61-8.39-3.4
				c-0.27-0.07-0.54,0.09-0.61,0.35c-0.07,0.27,0.09,0.54,0.35,0.61c2.86,0.76,5.61,1.87,8.16,3.3
				C158.38,49.27,158.46,49.29,158.54,49.29z"/>
			<path class="st3" d="M163.02,113.43c-0.95,1.14-1.95,2.27-2.95,3.36c0,0,0,0,0,0c-0.24,0.26-0.48,0.52-0.73,0.78c0,0,0,0,0,0
				c-0.51,0.54-1.02,1.08-1.54,1.61c-0.19,0.2-0.19,0.51,0.01,0.71c0.1,0.09,0.22,0.14,0.35,0.14c0.13,0,0.26-0.05,0.36-0.15
				c0.52-0.54,1.04-1.08,1.56-1.62c0,0,0,0,0,0c0.25-0.26,0.49-0.52,0.73-0.79c0,0,0,0,0,0c1.02-1.11,2.02-2.25,2.98-3.4
				c0.18-0.21,0.15-0.53-0.06-0.71C163.51,113.19,163.2,113.22,163.02,113.43z"/>
			<path class="st3" d="M83.37,116.24C83.37,116.24,83.37,116.24,83.37,116.24c-0.54-0.62-1.08-1.24-1.6-1.87c0,0,0,0,0,0
				c0,0,0,0,0,0c-0.94-1.13-1.88-2.31-2.79-3.5c-0.17-0.22-0.48-0.26-0.7-0.09c-0.22,0.17-0.26,0.48-0.09,0.7
				c0.92,1.2,1.86,2.39,2.82,3.53c0,0,0,0,0,0c0.53,0.64,1.07,1.27,1.61,1.89c0,0,0,0,0,0c0.33,0.38,0.66,0.75,1,1.12
				c0.1,0.11,0.23,0.17,0.37,0.17c0.12,0,0.24-0.04,0.33-0.13c0.21-0.18,0.22-0.5,0.04-0.71C84.03,116.98,83.7,116.61,83.37,116.24z
				"/>
		</g>
		<g>
			<path class="st3" d="M42.98,174.39c-0.01,0-0.02,0-0.03,0c-3.45-0.21-6.23-1.33-8.48-3.42c-0.2-0.19-0.21-0.5-0.03-0.71
				c0.19-0.2,0.5-0.22,0.71-0.03c2.08,1.93,4.65,2.96,7.86,3.15c0.28,0.02,0.49,0.25,0.47,0.53
				C43.46,174.19,43.24,174.39,42.98,174.39z M50.91,173.56c-0.23,0-0.43-0.15-0.49-0.38c-0.06-0.27,0.1-0.54,0.37-0.6
				c2.59-0.62,5.42-1.58,8.43-2.87c0.25-0.11,0.55,0.01,0.66,0.26c0.11,0.25-0.01,0.55-0.26,0.66c-3.06,1.31-5.95,2.29-8.59,2.92
				C50.98,173.56,50.94,173.56,50.91,173.56z M66.61,167.17c-0.18,0-0.35-0.09-0.44-0.26c-0.13-0.24-0.04-0.55,0.2-0.68
				c2.62-1.41,5.34-2.78,8.07-4.05c0.25-0.12,0.55-0.01,0.66,0.24c0.12,0.25,0.01,0.55-0.24,0.66c-2.72,1.27-5.41,2.62-8.02,4.02
				C66.77,167.15,66.69,167.17,66.61,167.17z M30.45,164.47c-0.19,0-0.38-0.12-0.46-0.31c-1.05-2.5-1.88-5.44-2.46-8.76
				c-0.05-0.27,0.13-0.53,0.41-0.58c0.27-0.06,0.53,0.13,0.58,0.41c0.56,3.24,1.37,6.11,2.39,8.54c0.11,0.25-0.01,0.55-0.27,0.66
				C30.59,164.46,30.52,164.47,30.45,164.47z M81.98,159.94c-0.2,0-0.38-0.12-0.46-0.31c-0.1-0.25,0.02-0.55,0.27-0.65l0.45-0.18
				c2.61-1.03,5.33-1.98,8.09-2.82c0.27-0.08,0.54,0.07,0.62,0.33c0.08,0.26-0.07,0.54-0.33,0.62c-2.73,0.83-5.42,1.77-8.01,2.79
				l-0.44,0.18C82.11,159.92,82.05,159.94,81.98,159.94z M174.15,159.7c-1.43,0-2.95-0.12-4.54-0.36c-0.65-0.11-1.29-0.22-1.94-0.35
				c-0.27-0.05-0.45-0.31-0.4-0.58s0.32-0.45,0.58-0.4c0.64,0.12,1.27,0.23,1.91,0.34c2.49,0.37,4.82,0.44,6.89,0.21
				c0.28-0.03,0.52,0.17,0.55,0.44c0.03,0.27-0.17,0.52-0.44,0.55C175.94,159.65,175.06,159.7,174.15,159.7z M159.97,157.26
				c-0.04,0-0.08,0-0.13-0.02c-0.41-0.11-0.83-0.22-1.24-0.33l-1.37-0.35c-1.78-0.46-3.56-0.91-5.34-1.35l-0.77-0.18
				c-0.27-0.06-0.43-0.33-0.37-0.6c0.06-0.27,0.33-0.44,0.6-0.37l0.77,0.19c1.79,0.44,3.57,0.9,5.35,1.35l1.37,0.35
				c0.42,0.11,0.82,0.22,1.23,0.33c0.27,0.07,0.43,0.34,0.36,0.61C160.39,157.11,160.19,157.26,159.97,157.26z M184.2,156.95
				c-0.16,0-0.32-0.08-0.42-0.23c-0.15-0.23-0.08-0.54,0.15-0.69l0.29-0.2c2.27-1.69,4.35-3.65,6.16-5.82
				c0.18-0.21,0.49-0.24,0.7-0.06c0.21,0.18,0.24,0.49,0.06,0.7c-1.86,2.24-4,4.25-6.35,6c-0.12,0.08-0.23,0.15-0.33,0.22
				C184.39,156.93,184.3,156.95,184.2,156.95z M98.2,154.9c-0.23,0-0.43-0.16-0.49-0.39c-0.06-0.27,0.11-0.54,0.38-0.6
				c2.91-0.66,5.9-1.22,8.88-1.66c0.28-0.04,0.53,0.15,0.57,0.42c0.04,0.27-0.15,0.53-0.42,0.57c-2.96,0.43-5.92,0.99-8.81,1.64
				C98.28,154.9,98.24,154.9,98.2,154.9z M143.4,153.47c-0.03,0-0.05,0-0.08-0.01c-2.82-0.46-5.71-0.81-8.58-1.06
				c-0.28-0.02-0.48-0.27-0.46-0.54c0.02-0.28,0.27-0.48,0.54-0.46c2.9,0.25,5.81,0.61,8.65,1.07c0.27,0.04,0.46,0.3,0.41,0.57
				C143.86,153.3,143.65,153.47,143.4,153.47z M27.15,147.87c-0.26,0-0.48-0.21-0.5-0.47c-0.1-1.7-0.14-3.5-0.14-5.34
				c0-1.21,0.02-2.45,0.06-3.7c0.01-0.28,0.26-0.48,0.52-0.48c0.28,0.01,0.49,0.24,0.48,0.52c-0.04,1.24-0.06,2.47-0.06,3.67
				c0,1.82,0.05,3.6,0.14,5.29c0.02,0.28-0.2,0.51-0.47,0.53C27.17,147.87,27.16,147.87,27.15,147.87z M195.41,144.33
				c-0.09,0-0.19-0.03-0.27-0.08c-0.23-0.15-0.3-0.46-0.15-0.69c1.62-2.5,3.11-5.11,4.45-7.75c0.12-0.25,0.43-0.34,0.67-0.22
				c0.25,0.12,0.35,0.42,0.22,0.67c-1.35,2.68-2.87,5.32-4.5,7.84C195.74,144.25,195.58,144.33,195.41,144.33z M27.58,130.89
				c-0.02,0-0.03,0-0.05,0c-0.27-0.03-0.48-0.27-0.45-0.54c0.27-2.89,0.63-5.91,1.08-8.97c0.04-0.27,0.29-0.46,0.57-0.42
				c0.27,0.04,0.46,0.29,0.42,0.57c-0.45,3.04-0.81,6.04-1.07,8.91C28.05,130.69,27.83,130.89,27.58,130.89z M203.15,129.23
				c-0.06,0-0.12-0.01-0.18-0.03c-0.26-0.1-0.38-0.39-0.28-0.65c1.08-2.77,2.02-5.62,2.8-8.49c0.07-0.27,0.34-0.42,0.61-0.35
				c0.27,0.07,0.42,0.35,0.35,0.61c-0.79,2.9-1.74,5.79-2.83,8.59C203.54,129.11,203.35,129.23,203.15,129.23z M29.98,114.05
				c-0.03,0-0.06,0-0.09-0.01c-0.27-0.05-0.45-0.31-0.4-0.58c0.55-2.91,1.18-5.88,1.87-8.83c0.06-0.27,0.33-0.44,0.6-0.37
				c0.27,0.06,0.44,0.33,0.37,0.6c-0.69,2.93-1.31,5.89-1.86,8.78C30.42,113.89,30.21,114.05,29.98,114.05z M207.68,112.88
				c-0.03,0-0.06,0-0.08-0.01c-0.27-0.05-0.46-0.31-0.41-0.58c0.5-2.93,0.85-5.91,1.03-8.88c0.02-0.28,0.25-0.5,0.53-0.47
				c0.28,0.02,0.48,0.25,0.47,0.53c-0.19,3-0.54,6.03-1.05,8.99C208.14,112.71,207.92,112.88,207.68,112.88z M33.81,97.49
				c-0.04,0-0.09-0.01-0.13-0.02c-0.27-0.07-0.42-0.35-0.35-0.61c0.79-2.9,1.65-5.82,2.55-8.66c0.08-0.26,0.36-0.41,0.63-0.33
				c0.26,0.08,0.41,0.36,0.33,0.63c-0.9,2.83-1.75,5.73-2.54,8.62C34.23,97.34,34.03,97.49,33.81,97.49z M208.84,95.95
				c-0.27,0-0.49-0.21-0.5-0.48c-0.1-2.97-0.35-5.97-0.76-8.91c-0.04-0.27,0.15-0.53,0.43-0.56c0.28-0.04,0.53,0.15,0.56,0.43
				c0.41,2.98,0.67,6.01,0.77,9.01c0.01,0.28-0.21,0.51-0.48,0.52C208.86,95.95,208.85,95.95,208.84,95.95z M38.9,81.27
				c-0.06,0-0.11-0.01-0.17-0.03c-0.26-0.09-0.4-0.38-0.3-0.64c1.04-2.89,2.13-5.72,3.25-8.42c0.11-0.25,0.4-0.38,0.65-0.27
				c0.25,0.11,0.38,0.4,0.27,0.65c-1.11,2.69-2.2,5.51-3.23,8.38C39.3,81.14,39.11,81.27,38.9,81.27z M206.61,79.13
				c-0.23,0-0.43-0.16-0.49-0.39c-0.68-2.89-1.53-5.78-2.51-8.58c-0.09-0.26,0.05-0.55,0.31-0.64c0.26-0.09,0.55,0.04,0.64,0.31
				c1,2.84,1.85,5.76,2.54,8.68c0.06,0.27-0.1,0.54-0.37,0.6C206.69,79.12,206.65,79.13,206.61,79.13z M45.38,65.54
				c-0.07,0-0.14-0.02-0.21-0.05c-0.25-0.12-0.36-0.42-0.24-0.67c1.35-2.85,2.74-5.55,4.14-8.03c0.13-0.24,0.44-0.33,0.68-0.19
				c0.24,0.14,0.33,0.44,0.19,0.68c-1.39,2.46-2.77,5.14-4.11,7.97C45.75,65.44,45.57,65.54,45.38,65.54z M201.08,63.08
				c-0.19,0-0.37-0.11-0.45-0.29c-1.25-2.7-2.65-5.36-4.18-7.91c-0.14-0.24-0.06-0.54,0.17-0.69c0.24-0.14,0.54-0.06,0.69,0.17
				c1.54,2.58,2.96,5.27,4.23,8c0.12,0.25,0.01,0.55-0.24,0.66C201.22,63.07,201.15,63.08,201.08,63.08z M53.72,50.74
				c-0.1,0-0.2-0.03-0.28-0.09c-0.23-0.16-0.29-0.47-0.13-0.7c0.22-0.32,0.44-0.64,0.66-0.95c1.52-2.13,3.16-4.22,4.87-6.21
				c0.18-0.21,0.5-0.23,0.71-0.05c0.21,0.18,0.23,0.5,0.05,0.71c-1.69,1.96-3.31,4.03-4.81,6.14c-0.22,0.31-0.44,0.62-0.66,0.94
				C54.04,50.67,53.88,50.74,53.72,50.74z M192.45,48.47c-0.15,0-0.31-0.07-0.4-0.2c-1.76-2.39-3.67-4.71-5.69-6.9
				c-0.19-0.2-0.17-0.52,0.03-0.71c0.2-0.19,0.52-0.17,0.71,0.03c2.04,2.22,3.97,4.57,5.75,6.99c0.16,0.22,0.12,0.54-0.11,0.7
				C192.66,48.44,192.55,48.47,192.45,48.47z M64.73,37.82c-0.13,0-0.26-0.05-0.36-0.15c-0.19-0.2-0.19-0.52,0.01-0.71
				c2.17-2.08,4.47-4.07,6.85-5.92c0.22-0.17,0.53-0.13,0.7,0.09c0.17,0.22,0.13,0.53-0.09,0.7c-2.35,1.82-4.63,3.79-6.77,5.85
				C64.98,37.77,64.85,37.82,64.73,37.82z M181.04,35.89c-0.12,0-0.24-0.04-0.33-0.13c-2.2-1.98-4.54-3.87-6.96-5.62
				c-0.22-0.16-0.27-0.47-0.11-0.7c0.16-0.22,0.47-0.27,0.7-0.11c2.44,1.77,4.81,3.68,7.04,5.69c0.21,0.18,0.22,0.5,0.04,0.71
				C181.32,35.84,181.18,35.89,181.04,35.89z M78.08,27.33c-0.17,0-0.33-0.08-0.42-0.23c-0.15-0.23-0.08-0.54,0.15-0.69
				c2.53-1.61,5.19-3.11,7.88-4.45c0.25-0.12,0.55-0.02,0.67,0.23c0.12,0.25,0.02,0.55-0.23,0.67c-2.66,1.32-5.28,2.8-7.79,4.4
				C78.26,27.31,78.17,27.33,78.08,27.33z M167.36,25.85c-0.09,0-0.17-0.02-0.25-0.07c-2.56-1.52-5.22-2.92-7.92-4.15
				c-0.25-0.12-0.36-0.41-0.25-0.66c0.12-0.25,0.41-0.36,0.66-0.25c2.73,1.25,5.42,2.67,8.01,4.2c0.24,0.14,0.32,0.45,0.17,0.69
				C167.7,25.76,167.53,25.85,167.36,25.85z M93.23,19.69c-0.2,0-0.39-0.12-0.47-0.32c-0.1-0.26,0.03-0.55,0.29-0.65
				c2.81-1.08,5.7-2.03,8.6-2.81c0.27-0.07,0.54,0.09,0.61,0.35c0.07,0.27-0.09,0.54-0.35,0.61c-2.86,0.77-5.72,1.71-8.5,2.78
				C93.35,19.68,93.29,19.69,93.23,19.69z M151.98,18.68c-0.05,0-0.11-0.01-0.16-0.03c-2.81-0.98-5.69-1.82-8.59-2.49
				c-0.27-0.06-0.44-0.33-0.37-0.6c0.06-0.27,0.33-0.44,0.6-0.37c2.93,0.68,5.85,1.53,8.69,2.52c0.26,0.09,0.4,0.38,0.31,0.64
				C152.38,18.55,152.19,18.68,151.98,18.68z M109.58,15.18c-0.24,0-0.45-0.17-0.49-0.42c-0.05-0.27,0.14-0.53,0.41-0.58
				c2.96-0.51,5.99-0.86,8.98-1.06c0.28-0.02,0.51,0.19,0.53,0.47c0.02,0.28-0.19,0.51-0.47,0.53c-2.96,0.19-5.95,0.54-8.88,1.04
				C109.64,15.18,109.61,15.18,109.58,15.18z M135.48,14.73c-0.02,0-0.04,0-0.07,0c-2.94-0.4-5.93-0.64-8.91-0.73
				c-0.28-0.01-0.49-0.24-0.49-0.51c0.01-0.28,0.28-0.48,0.51-0.49c3.01,0.09,6.05,0.34,9.02,0.74c0.27,0.04,0.47,0.29,0.43,0.56
				C135.94,14.55,135.73,14.73,135.48,14.73z"/>
		</g>
		<path class="st3" d="M156.03,131.05l-30.48,22.62c-2.84,2.11-6.74,2.04-9.5-0.17l-30.02-24.01c-2.51-2.01-2.92-5.67-0.91-8.19
			c2.01-2.51,5.67-2.92,8.19-0.91L121,142.54l28.24-20.96c2.61-1.94,6.32-1.36,8.21,1.29C159.32,125.49,158.61,129.14,156.03,131.05
			z"/>
		<path class="st3" d="M111.15,129.89c2.29-3.05,5.94-5.03,10.04-5.03c4.21,0,7.94,2.08,10.21,5.27c-5.45,4.05-10.23,7.45-10.3,7.45
			C121.05,137.59,116.44,134.08,111.15,129.89z"/>
		<path class="st3" d="M164.81,96.5l-0.01,0.01c-5.4,8.8-12.21,16.67-20.15,23.28c-2.56,2.24-6.69,5.44-10.79,8.52
			c-2.83-3.94-7.46-6.5-12.67-6.5c-5.07,0-9.59,2.43-12.44,6.19c-4.03-3.22-8.11-6.59-10.62-8.92
			c-7.74-6.85-14.29-14.93-19.39-23.92c-8.91-16.63-1.18-41.02,20.48-42.48c8.2-0.53,20.73,4.03,23.06,11.18
			c2.56-7.06,12.97-11.36,21.15-10.55C165.07,55.41,174.26,80.15,164.81,96.5z"/>
	</g>
</g>
</svg>
