<svg xmlns="http://www.w3.org/2000/svg" width="544.419" height="161.39" viewBox="0 0 544.419 161.39">
  <g id="layf_logo_vector_copy" data-name="layf logo vector copy" transform="translate(-26.51 -13)">
    <g id="LAYF" transform="translate(1263.559 -137)">
      <g id="Group_6267" data-name="Group 6267">
        <path id="Path_10753" data-name="Path 10753" d="M-995.9,269.5h45.24v17.12h-66.55V183.2h21.31Z" fill="#fffefe"/>
        <path id="Path_10754" data-name="Path 10754" d="M-878.71,265.31h-37.36l-7.1,21.31h-22.66l38.5-103.41h19.75l38.71,103.41h-22.66Zm-31.61-17.26h25.85l-13-38.71Z" fill="#fffefe"/>
        <path id="Path_10755" data-name="Path 10755" d="M-814.22,229.8l21.52-46.59h23.3l-33.95,65.91v37.5h-21.66v-37.5l-33.95-65.91h23.37Z" fill="#fffefe"/>
        <path id="Path_10756" data-name="Path 10756" d="M-697.74,244.36h-40.91v42.26h-21.31V183.2h67.33v17.26h-46.02v26.71h40.91Z" fill="#fffefe"/>
      </g>
    </g>
    <g id="Group_6270" data-name="Group 6270">
      <g id="Group_6268" data-name="Group 6268">
        <path id="Path_10758" data-name="Path 10758" d="M94.31,43.76a34.684,34.684,0,0,0-8.54,2.76.5.5,0,0,0,.21.96.537.537,0,0,0,.21-.05,34.067,34.067,0,0,1,8.29-2.68.5.5,0,0,0,.4-.58A.477.477,0,0,0,94.31,43.76Z" fill="#fff"/>
        <path id="Path_10759" data-name="Path 10759" d="M79.72,50.84a.494.494,0,0,0-.7-.07,34.116,34.116,0,0,0-6.16,6.53.507.507,0,0,0,.11.7.521.521,0,0,0,.29.09.494.494,0,0,0,.41-.21,33.034,33.034,0,0,1,5.98-6.34A.5.5,0,0,0,79.72,50.84Z" fill="#fff"/>
        <path id="Path_10760" data-name="Path 10760" d="M111.11,44.67a42.178,42.178,0,0,0-8.84-1.47.5.5,0,0,0-.53.47.509.509,0,0,0,.47.53,40.847,40.847,0,0,1,8.63,1.44.585.585,0,0,0,.13.02.5.5,0,0,0,.48-.37A.486.486,0,0,0,111.11,44.67Z" fill="#fff"/>
        <path id="Path_10761" data-name="Path 10761" d="M71.38,99.35l-.1-.19c-.41-.76-.8-1.55-1.15-2.35a.494.494,0,0,0-.66-.25.5.5,0,0,0-.25.66c.37.82.77,1.63,1.19,2.42l.11.2c.99,1.74,2.04,3.48,3.13,5.15a.506.506,0,0,0,.42.23.53.53,0,0,0,.27-.08.5.5,0,0,0,.15-.69C73.39,102.79,72.35,101.07,71.38,99.35Z" fill="#fff"/>
        <path id="Path_10762" data-name="Path 10762" d="M66.66,80.75a.508.508,0,0,0-.5-.5h0a.5.5,0,0,0-.5.5,42.1,42.1,0,0,0,1.03,8.9.5.5,0,0,0,.49.39.41.41,0,0,0,.11-.01.5.5,0,0,0,.38-.6A41.339,41.339,0,0,1,66.66,80.75Z" fill="#fff"/>
        <path id="Path_10763" data-name="Path 10763" d="M66.74,73.4a.277.277,0,0,0,.09.01.494.494,0,0,0,.49-.41,38.6,38.6,0,0,1,2.52-8.37.5.5,0,0,0-.92-.4,39.414,39.414,0,0,0-2.58,8.58A.5.5,0,0,0,66.74,73.4Z" fill="#fff"/>
        <path id="Path_10764" data-name="Path 10764" d="M125.86,47.51a32.562,32.562,0,0,0-3.64,2.15,33.037,33.037,0,0,0-3.64-2.12.5.5,0,0,0-.67.22.5.5,0,0,0,.22.67,31.323,31.323,0,0,1,3.81,2.25h.57a29.68,29.68,0,0,1,3.79-2.27.491.491,0,0,0,.22-.67A.471.471,0,0,0,125.86,47.51Z" fill="#fff"/>
        <path id="Path_10765" data-name="Path 10765" d="M177.48,83.24a.509.509,0,0,0-.52.48,37.834,37.834,0,0,1-1.34,8.71.507.507,0,0,0,.35.62.585.585,0,0,0,.13.02.5.5,0,0,0,.48-.37,38.821,38.821,0,0,0,1.37-8.94A.488.488,0,0,0,177.48,83.24Z" fill="#fff"/>
        <path id="Path_10766" data-name="Path 10766" d="M173.4,99.5a.5.5,0,0,0-.68.21c-.19.35-.38.7-.56,1.02l-1.62,2.56c-.84,1.3-1.74,2.6-2.65,3.87a.507.507,0,0,0,.11.7.521.521,0,0,0,.29.09.494.494,0,0,0,.41-.21c.92-1.28,1.82-2.6,2.68-3.91l1.63-2.58c.2-.35.4-.71.59-1.07A.487.487,0,0,0,173.4,99.5Z" fill="#fff"/>
        <path id="Path_10767" data-name="Path 10767" d="M176.96,76.31a.22.22,0,0,0,.08-.01.491.491,0,0,0,.41-.57,40.612,40.612,0,0,0-2.46-8.71.5.5,0,0,0-.92.38,39.723,39.723,0,0,1,2.4,8.49A.479.479,0,0,0,176.96,76.31Z" fill="#fff"/>
        <path id="Path_10768" data-name="Path 10768" d="M170.81,60.69a.566.566,0,0,0,.28-.08.5.5,0,0,0,.14-.69,37.4,37.4,0,0,0-5.9-6.86.514.514,0,0,0-.71.03.5.5,0,0,0,.03.71,35.765,35.765,0,0,1,5.74,6.68A.512.512,0,0,0,170.81,60.69Z" fill="#fff"/>
        <path id="Path_10769" data-name="Path 10769" d="M142.43,43.75a33.855,33.855,0,0,0-9.01.98.5.5,0,0,0,.12.98.487.487,0,0,0,.12-.01,33.085,33.085,0,0,1,8.74-.96.516.516,0,0,0,.52-.48A.5.5,0,0,0,142.43,43.75Z" fill="#fff"/>
        <path id="Path_10770" data-name="Path 10770" d="M158.54,49.29a.5.5,0,0,0,.44-.26.494.494,0,0,0-.19-.68,36.544,36.544,0,0,0-8.39-3.4.5.5,0,1,0-.26.96,35.162,35.162,0,0,1,8.16,3.3A.384.384,0,0,0,158.54,49.29Z" fill="#fff"/>
        <path id="Path_10771" data-name="Path 10771" d="M163.02,113.43c-.95,1.14-1.95,2.27-2.95,3.36h0c-.24.26-.48.52-.73.78h0c-.51.54-1.02,1.08-1.54,1.61a.5.5,0,0,0,.01.71.518.518,0,0,0,.35.14.508.508,0,0,0,.36-.15l1.56-1.62h0c.25-.26.49-.52.73-.79h0c1.02-1.11,2.02-2.25,2.98-3.4a.506.506,0,0,0-.06-.71A.516.516,0,0,0,163.02,113.43Z" fill="#fff"/>
        <path id="Path_10772" data-name="Path 10772" d="M83.37,116.24h0c-.54-.62-1.08-1.24-1.6-1.87h0c-.94-1.13-1.88-2.31-2.79-3.5a.5.5,0,1,0-.79.61c.92,1.2,1.86,2.39,2.82,3.53h0c.53.64,1.07,1.27,1.61,1.89h0c.33.38.66.75,1,1.12a.5.5,0,0,0,.37.17.46.46,0,0,0,.33-.13.5.5,0,0,0,.04-.71Z" fill="#fff"/>
      </g>
      <g id="Group_6269" data-name="Group 6269">
        <path id="Path_10773" data-name="Path 10773" d="M42.98,174.39h-.03a13.109,13.109,0,0,1-8.48-3.42.514.514,0,0,1-.03-.71.5.5,0,0,1,.71-.03,12.11,12.11,0,0,0,7.86,3.15.5.5,0,0,1,.47.53A.5.5,0,0,1,42.98,174.39Zm7.93-.83a.5.5,0,0,1-.49-.38.5.5,0,0,1,.37-.6,52.938,52.938,0,0,0,8.43-2.87.5.5,0,1,1,.4.92,53.9,53.9,0,0,1-8.59,2.92A.573.573,0,0,1,50.91,173.56Zm15.7-6.39a.489.489,0,0,1-.44-.26.506.506,0,0,1,.2-.68c2.62-1.41,5.34-2.78,8.07-4.05a.5.5,0,0,1,.42.9c-2.72,1.27-5.41,2.62-8.02,4.02A.389.389,0,0,1,66.61,167.17Zm-36.16-2.7a.509.509,0,0,1-.46-.31,40.938,40.938,0,0,1-2.46-8.76.5.5,0,0,1,.41-.58.491.491,0,0,1,.58.41,39.645,39.645,0,0,0,2.39,8.54.5.5,0,0,1-.27.66A.381.381,0,0,1,30.45,164.47Zm51.53-4.53a.5.5,0,0,1-.46-.31.505.505,0,0,1,.27-.65l.45-.18c2.61-1.03,5.33-1.98,8.09-2.82a.5.5,0,1,1,.29.95c-2.73.83-5.42,1.77-8.01,2.79l-.44.18A.585.585,0,0,1,81.98,159.94Zm92.17-.24a30.526,30.526,0,0,1-4.54-.36c-.65-.11-1.29-.22-1.94-.35a.5.5,0,0,1-.4-.58.5.5,0,0,1,.58-.4c.64.12,1.27.23,1.91.34a27.036,27.036,0,0,0,6.89.21.5.5,0,0,1,.55.44.5.5,0,0,1-.44.55A21.707,21.707,0,0,1,174.15,159.7Zm-14.18-2.44a.318.318,0,0,1-.13-.02l-1.24-.33-1.37-.35q-2.67-.69-5.34-1.35l-.77-.18a.5.5,0,0,1-.37-.6.489.489,0,0,1,.6-.37l.77.19c1.79.44,3.57.9,5.35,1.35l1.37.35c.42.11.82.22,1.23.33a.5.5,0,0,1,.36.61A.462.462,0,0,1,159.97,157.26Zm24.23-.31a.506.506,0,0,1-.42-.23.5.5,0,0,1,.15-.69l.29-.2a36.133,36.133,0,0,0,6.16-5.82.5.5,0,0,1,.76.64,36.857,36.857,0,0,1-6.35,6c-.12.08-.23.15-.33.22A.385.385,0,0,1,184.2,156.95Zm-86-2.05a.511.511,0,0,1-.49-.39.5.5,0,0,1,.38-.6c2.91-.66,5.9-1.22,8.88-1.66a.5.5,0,0,1,.57.42.505.505,0,0,1-.42.57c-2.96.43-5.92.99-8.81,1.64A.2.2,0,0,1,98.2,154.9Zm45.2-1.43a.22.22,0,0,1-.08-.01c-2.82-.46-5.71-.81-8.58-1.06a.5.5,0,1,1,.08-1c2.9.25,5.81.61,8.65,1.07a.491.491,0,0,1,.41.57A.464.464,0,0,1,143.4,153.47Zm-116.25-5.6a.51.51,0,0,1-.5-.47c-.1-1.7-.14-3.5-.14-5.34,0-1.21.02-2.45.06-3.7a.515.515,0,0,1,.52-.48.5.5,0,0,1,.48.52c-.04,1.24-.06,2.47-.06,3.67,0,1.82.05,3.6.14,5.29a.5.5,0,0,1-.47.53C27.17,147.87,27.16,147.87,27.15,147.87Zm168.26-3.54a.53.53,0,0,1-.27-.08.5.5,0,0,1-.15-.69,85.24,85.24,0,0,0,4.45-7.75.5.5,0,0,1,.67-.22.488.488,0,0,1,.22.67,84.523,84.523,0,0,1-4.5,7.84A.481.481,0,0,1,195.41,144.33ZM27.58,130.89h-.05a.5.5,0,0,1-.45-.54c.27-2.89.63-5.91,1.08-8.97a.5.5,0,0,1,.99.15c-.45,3.04-.81,6.04-1.07,8.91A.515.515,0,0,1,27.58,130.89Zm175.57-1.66a.566.566,0,0,1-.18-.03.5.5,0,0,1-.28-.65,84.3,84.3,0,0,0,2.8-8.49.5.5,0,0,1,.96.26,86.28,86.28,0,0,1-2.83,8.59A.506.506,0,0,1,203.15,129.23ZM29.98,114.05a.277.277,0,0,1-.09-.01.5.5,0,0,1-.4-.58c.55-2.91,1.18-5.88,1.87-8.83a.5.5,0,1,1,.97.23c-.69,2.93-1.31,5.89-1.86,8.78A.5.5,0,0,1,29.98,114.05Zm177.7-1.17a.2.2,0,0,1-.08-.01.506.506,0,0,1-.41-.58,82.664,82.664,0,0,0,1.03-8.88.489.489,0,0,1,.53-.47.5.5,0,0,1,.47.53,84.738,84.738,0,0,1-1.05,8.99A.486.486,0,0,1,207.68,112.88ZM33.81,97.49a.586.586,0,0,1-.13-.02.5.5,0,0,1-.35-.61c.79-2.9,1.65-5.82,2.55-8.66a.5.5,0,0,1,.96.3c-.9,2.83-1.75,5.73-2.54,8.62A.522.522,0,0,1,33.81,97.49Zm175.03-1.54a.5.5,0,0,1-.5-.48,85.653,85.653,0,0,0-.76-8.91.49.49,0,0,1,.43-.56.485.485,0,0,1,.56.43,87.824,87.824,0,0,1,.77,9.01.5.5,0,0,1-.48.52C208.86,95.95,208.85,95.95,208.84,95.95ZM38.9,81.27a.508.508,0,0,1-.17-.03.493.493,0,0,1-.3-.64c1.04-2.89,2.13-5.72,3.25-8.42a.5.5,0,0,1,.92.38c-1.11,2.69-2.2,5.51-3.23,8.38A.5.5,0,0,1,38.9,81.27Zm167.71-2.14a.511.511,0,0,1-.49-.39,85.111,85.111,0,0,0-2.51-8.58.506.506,0,0,1,.31-.64.5.5,0,0,1,.64.31,85.261,85.261,0,0,1,2.54,8.68.525.525,0,0,1-.49.62ZM45.38,65.54a.537.537,0,0,1-.21-.05.5.5,0,0,1-.24-.67c1.35-2.85,2.74-5.55,4.14-8.03a.5.5,0,1,1,.87.49c-1.39,2.46-2.77,5.14-4.11,7.97A.477.477,0,0,1,45.38,65.54Zm155.7-2.46a.493.493,0,0,1-.45-.29,84.054,84.054,0,0,0-4.18-7.91.5.5,0,0,1,.86-.52,88.455,88.455,0,0,1,4.23,8,.49.49,0,0,1-.24.66A.387.387,0,0,1,201.08,63.08ZM53.72,50.74a.468.468,0,0,1-.28-.09.5.5,0,0,1-.13-.7c.22-.32.44-.64.66-.95,1.52-2.13,3.16-4.22,4.87-6.21a.5.5,0,0,1,.76.66c-1.69,1.96-3.31,4.03-4.81,6.14-.22.31-.44.62-.66.94A.481.481,0,0,1,53.72,50.74Zm138.73-2.27a.493.493,0,0,1-.4-.2,81.387,81.387,0,0,0-5.69-6.9.5.5,0,0,1,.74-.68,83.355,83.355,0,0,1,5.75,6.99.493.493,0,0,1-.4.79ZM64.73,37.82a.5.5,0,0,1-.35-.86,87.82,87.82,0,0,1,6.85-5.92.5.5,0,0,1,.61.79,83.739,83.739,0,0,0-6.77,5.85A.494.494,0,0,1,64.73,37.82Zm116.31-1.93a.46.46,0,0,1-.33-.13,84.164,84.164,0,0,0-6.96-5.62.5.5,0,0,1,.59-.81,85.769,85.769,0,0,1,7.04,5.69.5.5,0,0,1-.34.87ZM78.08,27.33a.482.482,0,0,1-.42-.23.5.5,0,0,1,.15-.69,87.06,87.06,0,0,1,7.88-4.45.5.5,0,1,1,.44.9,84.077,84.077,0,0,0-7.79,4.4A.484.484,0,0,1,78.08,27.33Zm89.28-1.48a.451.451,0,0,1-.25-.07,82.861,82.861,0,0,0-7.92-4.15.5.5,0,1,1,.41-.91,87.175,87.175,0,0,1,8.01,4.2.494.494,0,0,1,.17.69A.479.479,0,0,1,167.36,25.85ZM93.23,19.69a.5.5,0,0,1-.18-.97,87.2,87.2,0,0,1,8.6-2.81.5.5,0,0,1,.26.96,86.054,86.054,0,0,0-8.5,2.78A.392.392,0,0,1,93.23,19.69Zm58.75-1.01a.453.453,0,0,1-.16-.03,82.659,82.659,0,0,0-8.59-2.49.5.5,0,0,1,.23-.97,84.6,84.6,0,0,1,8.69,2.52.506.506,0,0,1,.31.64A.519.519,0,0,1,151.98,18.68Zm-42.4-3.5a.494.494,0,0,1-.49-.42.506.506,0,0,1,.41-.58,87.587,87.587,0,0,1,8.98-1.06.5.5,0,1,1,.06,1,85.629,85.629,0,0,0-8.88,1.04A.108.108,0,0,1,109.58,15.18Zm25.9-.45h-.07A85.381,85.381,0,0,0,126.5,14a.508.508,0,0,1-.49-.51.545.545,0,0,1,.51-.49,87.5,87.5,0,0,1,9.02.74.5.5,0,0,1,.43.56A.488.488,0,0,1,135.48,14.73Z" fill="#fff"/>
      </g>
      <path id="Path_10774" data-name="Path 10774" d="M156.03,131.05l-30.48,22.62a7.775,7.775,0,0,1-9.5-.17L86.03,129.49a5.827,5.827,0,1,1,7.28-9.1L121,142.54l28.24-20.96a5.826,5.826,0,0,1,8.21,1.29A5.944,5.944,0,0,1,156.03,131.05Z" fill="#fff"/>
      <path id="Path_10775" data-name="Path 10775" d="M111.15,129.89a12.53,12.53,0,0,1,20.25.24c-5.45,4.05-10.23,7.45-10.3,7.45C121.05,137.59,116.44,134.08,111.15,129.89Z" fill="#fff"/>
      <path id="Path_10776" data-name="Path 10776" d="M164.81,96.5l-.01.01a94.85,94.85,0,0,1-20.15,23.28c-2.56,2.24-6.69,5.44-10.79,8.52a15.6,15.6,0,0,0-25.11-.31c-4.03-3.22-8.11-6.59-10.62-8.92A93.635,93.635,0,0,1,78.74,95.16c-8.91-16.63-1.18-41.02,20.48-42.48,8.2-.53,20.73,4.03,23.06,11.18,2.56-7.06,12.97-11.36,21.15-10.55C165.07,55.41,174.26,80.15,164.81,96.5Z" fill="#fff"/>
    </g>
  </g>
</svg>
