<svg xmlns="http://www.w3.org/2000/svg" xmlns:xlink="http://www.w3.org/1999/xlink" width="62.111" height="51.492" viewBox="0 0 62.111 51.492">
  <defs>
    <radialGradient id="radial-gradient" cx="0.48" cy="0.896" r="0.898" gradientTransform="translate(0.085) scale(0.829 1)" gradientUnits="objectBoundingBox">
      <stop offset="0" stop-color="#93c83e"/>
      <stop offset="1" stop-color="#4eaf48"/>
    </radialGradient>
  </defs>
  <path id="Path_842" data-name="Path 842" d="M157.49,177.051a28.073,28.073,0,0,0-39.565-1.4c-11.3,10.5-26.553,46.838-1.365,39.409a41.589,41.589,0,0,1,8.712-1.659.675.675,0,0,0,.458-1.12l-5.721-6.563a4.546,4.546,0,0,1-1.062-3.727l1.553-9.464h0a1.259,1.259,0,0,1,2.485.409h0l-.049,5.484a4.706,4.706,0,0,0,1.438,3.424l3.408,3.269-1.945-4.332a2.089,2.089,0,0,1-.09-.2h0a1.215,1.215,0,0,1,0-.744,1.158,1.158,0,0,1,1.1-.793,1.17,1.17,0,0,1,.883.417h0L130.9,203.5a7.875,7.875,0,0,1,1.586,6.162l-.4,2.435a2.839,2.839,0,0,1-.2.695.675.675,0,0,0,.507.94c.016,0,.041.008.057.008a.686.686,0,0,0,.8-.719,3.211,3.211,0,0,1,.033-.736l.4-2.435a7.894,7.894,0,0,1,3.473-5.329l4.291-2.8h0a1.16,1.16,0,0,1,1.528,1.692h0a.875.875,0,0,1-.147.155l-3.228,3.482,4.274-2a4.672,4.672,0,0,0,2.46-2.779l1.708-5.206h0a1.259,1.259,0,1,1,2.485.409h0l-1.553,9.464a4.547,4.547,0,0,1-2.2,3.2s-5.28,3.089-7.691,4.5a.676.676,0,0,0,.074,1.2c6.718,2.918,10.486,6.628,16.926.637A27.768,27.768,0,0,0,157.49,177.051ZM107.366,199.6c.229-.727.482-1.479.752-2.231a.23.23,0,1,1,.433.155c-.27.744-.523,1.487-.744,2.215a.236.236,0,0,1-.221.163.16.16,0,0,1-.065-.008A.23.23,0,0,1,107.366,199.6Zm-1.087,9.521h-.025a.236.236,0,0,1-.229-.2,12.947,12.947,0,0,1-.082-1.422c0-.311.008-.629.033-.956a.236.236,0,0,1,.245-.221.23.23,0,0,1,.221.245c-.016.319-.033.637-.033.932a11.86,11.86,0,0,0,.074,1.365A.244.244,0,0,1,106.279,209.121Zm.2-4.667h-.041a.233.233,0,0,1-.188-.27c.008-.057.016-.114.025-.163.123-.687.27-1.406.458-2.149a.231.231,0,1,1,.45.106c-.18.727-.335,1.438-.45,2.117-.008.057-.016.106-.025.163A.242.242,0,0,1,106.475,204.454Zm2.427,8.156a.236.236,0,0,1-.221.163.159.159,0,0,1-.065-.008,3.165,3.165,0,0,1-1.929-1.52.234.234,0,1,1,.409-.229,2.665,2.665,0,0,0,1.659,1.3A.238.238,0,0,1,108.9,212.611Zm1.43-19.4c-.212.458-.417.924-.613,1.373-.106.253-.221.515-.327.768a.238.238,0,0,1-.212.147.347.347,0,0,1-.09-.016.235.235,0,0,1-.123-.3c.106-.253.212-.515.327-.776.2-.458.4-.924.613-1.381a.24.24,0,0,1,.311-.114A.224.224,0,0,1,110.333,193.208Zm9.775,17.375c.785-.155.564-.131,1.324-.237a.237.237,0,0,1,.262.2.232.232,0,0,1-.2.262,12.771,12.771,0,0,0-1.3.229c-.016,0-.033.008-.049.008a.235.235,0,0,1-.229-.188A.244.244,0,0,1,120.107,210.584Zm-4.332-27.763c.474-.662.948-1.291,1.422-1.88a.232.232,0,1,1,.36.294c-.466.58-.94,1.21-1.406,1.863a.229.229,0,0,1-.188.1.236.236,0,0,1-.188-.376Zm-4.838,8.075c.351-.695.719-1.4,1.1-2.084a.229.229,0,1,1,.4.221c-.376.678-.744,1.373-1.087,2.068a.233.233,0,0,1-.2.131.252.252,0,0,1-.106-.025A.229.229,0,0,1,110.938,190.9Zm2.435,21.83a15.429,15.429,0,0,1-2.362.286H111a.227.227,0,0,1-.229-.221.224.224,0,0,1,.221-.237,14.487,14.487,0,0,0,2.288-.278.229.229,0,1,1,.09.45Zm1.463-27.706c-.417.637-.834,1.308-1.234,1.986a.232.232,0,0,1-.319.082.236.236,0,0,1-.082-.319c.409-.678.825-1.357,1.242-1.994a.227.227,0,0,1,.319-.065A.219.219,0,0,1,114.836,185.019Zm3.089,26.529c-.719.18-1.471.384-2.215.6l-.033.008a.18.18,0,0,1-.065.008.236.236,0,0,1-.221-.163.23.23,0,0,1,.155-.286l.033-.008c.752-.221,1.5-.425,2.239-.613a.222.222,0,0,1,.278.172A.234.234,0,0,1,117.925,211.548Zm2.8-33.713c-.139.123-.286.253-.425.384-.4.376-.817.793-1.234,1.242a.235.235,0,0,1-.172.074.193.193,0,0,1-.155-.065.24.24,0,0,1-.016-.327c.425-.466.85-.891,1.259-1.267.139-.131.286-.262.433-.392a.24.24,0,0,1,.327.016A.234.234,0,0,1,120.729,177.835Zm24.5,37.227a.236.236,0,0,1-.212.131.217.217,0,0,1-.1-.025c-.384-.188-.866-.417-1.177-.564a.232.232,0,1,1,.2-.417c.311.147.793.384,1.177.564A.248.248,0,0,1,145.231,215.062Zm4.242,1.561h-.016a6.873,6.873,0,0,1-2.362-.507.23.23,0,0,1,.155-.433,6.352,6.352,0,0,0,2.2.474h.025a.228.228,0,0,1,.229.229A.241.241,0,0,1,149.472,216.623Zm11.082-28.163a.236.236,0,0,1,.294.155c.237.752.441,1.52.6,2.288a.244.244,0,0,1-.18.278c-.016,0-.033.008-.049.008a.236.236,0,0,1-.229-.18c-.163-.752-.36-1.512-.588-2.248A.231.231,0,0,1,160.555,188.46Zm-16.068-15.872a.232.232,0,0,1,.294-.147c.678.221,1.357.474,2.019.752.065.025.131.057.2.082a.235.235,0,0,1,.123.3.23.23,0,0,1-.212.139.294.294,0,0,1-.09-.016c-.065-.025-.131-.057-.188-.082-.646-.278-1.316-.523-1.978-.744A.223.223,0,0,1,144.487,172.588Zm-4.577-.981a.232.232,0,0,1,.262-.2c.785.1,1.561.237,2.329.409a.228.228,0,0,1,.172.278.236.236,0,0,1-.229.18.1.1,0,0,1-.049-.008c-.752-.172-1.52-.3-2.288-.4A.22.22,0,0,1,139.91,171.608Zm-4.462-.351c.785-.049,1.577-.057,2.362-.033a.229.229,0,1,1-.016.458c-.776-.025-1.553-.016-2.321.033h-.016a.229.229,0,0,1-.008-.458Zm-4.675.736c.76-.2,1.545-.351,2.321-.474a.231.231,0,0,1,.065.458c-.76.123-1.528.278-2.272.466a.139.139,0,0,1-.057.008.228.228,0,0,1-.221-.172A.232.232,0,0,1,130.773,171.992Zm-4.446,1.6c.711-.335,1.447-.637,2.182-.907a.23.23,0,0,1,.155.433c-.727.262-1.447.564-2.141.891a.218.218,0,0,1-.1.025.231.231,0,0,1-.1-.441Zm-3.784,2.787a.214.214,0,0,1-.139.041.229.229,0,0,1-.188-.1.243.243,0,0,1,.049-.327c.637-.466,1.3-.9,1.978-1.308a.233.233,0,0,1,.237.4C123.818,175.49,123.164,175.923,122.543,176.38Zm25.491,17.089a26.634,26.634,0,0,1-6.587,5.615c-2.068,1.316-7.29,3.964-7.3,3.947-.016.008-4.07-4.2-5.6-6.121a26.272,26.272,0,0,1-4.372-7.47c-1.773-5,1.414-11.45,7.494-10.935,2.3.2,5.59,2,5.933,4.086,1.013-1.855,4.086-2.607,6.326-2.035C149.848,182.061,151.352,189.326,148.034,193.47Zm3.155-17.58a.219.219,0,0,1-.188.1.247.247,0,0,1-.131-.041c-.637-.433-1.3-.842-1.978-1.218a.234.234,0,1,1,.229-.409c.687.376,1.365.8,2.011,1.242A.235.235,0,0,1,151.189,175.89Zm2.542,38.641a11.282,11.282,0,0,1-1.929,1.406.266.266,0,0,1-.114.033.225.225,0,0,1-.2-.123.231.231,0,0,1,.09-.319,11.119,11.119,0,0,0,1.847-1.349.24.24,0,0,1,.327.016A.243.243,0,0,1,153.73,214.531Zm1.03-35.609a.26.26,0,0,1-.163.065.243.243,0,0,1-.163-.065c-.548-.548-1.12-1.079-1.708-1.569a.232.232,0,1,1,.294-.36c.6.5,1.185,1.038,1.741,1.6A.232.232,0,0,1,154.76,178.922Zm2.182,32.135c-.474.621-.989,1.234-1.52,1.814a.235.235,0,0,1-.172.074.223.223,0,0,1-.155-.065.24.24,0,0,1-.016-.327c.523-.564,1.03-1.169,1.5-1.773a.233.233,0,0,1,.327-.041A.224.224,0,0,1,156.942,211.058Zm.76-28.49a.247.247,0,0,1-.131.041.244.244,0,0,1-.2-.1c-.433-.637-.9-1.267-1.389-1.863a.232.232,0,1,1,.36-.294,22.831,22.831,0,0,1,1.414,1.9A.227.227,0,0,1,157.7,182.567Zm1.733,24.478c-.351.7-.736,1.4-1.152,2.068a.222.222,0,0,1-.2.106.231.231,0,0,1-.123-.033.235.235,0,0,1-.074-.319c.409-.654.785-1.34,1.128-2.027a.232.232,0,0,1,.417.2Zm.376-20.326a.222.222,0,0,1-.212-.139c-.3-.711-.646-1.414-1.013-2.092a.229.229,0,1,1,.4-.221q.564,1.042,1.03,2.133a.235.235,0,0,1-.123.3A.29.29,0,0,1,159.811,186.719Zm1.3,15.9a23.25,23.25,0,0,1-.727,2.248.232.232,0,0,1-.221.147.29.29,0,0,1-.082-.016.229.229,0,0,1-.131-.3c.27-.719.515-1.463.719-2.207a.235.235,0,0,1,.286-.163A.251.251,0,0,1,161.11,202.623Zm.515-2.313a.229.229,0,0,1-.229.2h-.041a.233.233,0,0,1-.188-.27c.131-.76.229-1.536.286-2.3a.229.229,0,0,1,.458.033C161.854,198.749,161.756,199.542,161.625,200.31Zm.123-4.479h0a.23.23,0,0,1-.237-.229c-.016-.776-.065-1.553-.155-2.313a.22.22,0,0,1,.2-.253.224.224,0,0,1,.253.2c.09.776.139,1.577.155,2.362A.217.217,0,0,1,161.748,195.832Z" transform="translate(-102.904 -168.173)" fill="url(#radial-gradient)"/>
</svg>
